<?xml version="1.0" standalone="no"?>
<!DOCTYPE svg PUBLIC "-//W3C//DTD SVG 20010904//EN"
 "http://www.w3.org/TR/2001/REC-SVG-20010904/DTD/svg10.dtd">
<svg version="1.0" xmlns="http://www.w3.org/2000/svg"
 width="512.000000pt" height="512.000000pt" viewBox="0 0 512.000000 512.000000"
 preserveAspectRatio="xMidYMid meet">

<g transform="translate(0.000000,512.000000) scale(0.100000,-0.100000)"
fill="#000000" stroke="none">
<path d="M2013 4310 c-37 -15 -65 -69 -59 -113 10 -82 61 -107 223 -107 177
-1 216 -23 247 -145 13 -49 16 -132 16 -480 0 -562 8 -606 134 -730 66 -65
134 -107 245 -152 22 -8 17 -12 -52 -37 -96 -35 -206 -112 -248 -172 -18 -26
-41 -74 -53 -108 -19 -57 -20 -93 -26 -561 -4 -339 -10 -511 -18 -535 -38
-112 -86 -139 -250 -140 -157 0 -208 -25 -218 -107 -6 -46 23 -98 62 -113 14
-6 98 -10 188 -10 171 0 239 11 317 51 100 51 180 172 199 304 5 39 10 272 10
521 0 422 1 456 20 515 39 127 140 220 277 258 112 30 159 87 139 167 -10 38
-59 80 -103 89 -113 21 -224 97 -279 191 -51 87 -54 116 -54 569 0 231 -5 453
-10 494 -23 177 -133 301 -307 346 -64 17 -362 20 -400 5z"/>
</g>
</svg>
