<?xml version="1.0" standalone="no"?>
<!DOCTYPE svg PUBLIC "-//W3C//DTD SVG 20010904//EN"
 "http://www.w3.org/TR/2001/REC-SVG-20010904/DTD/svg10.dtd">
<svg version="1.0" xmlns="http://www.w3.org/2000/svg"
 width="512.000000pt" height="512.000000pt" viewBox="0 0 512.000000 512.000000"
 preserveAspectRatio="xMidYMid meet">

<g transform="translate(0.000000,512.000000) scale(0.100000,-0.100000)"
fill="#000000" stroke="none">
<path d="M2693 4305 c-142 -39 -236 -131 -283 -280 -10 -29 -15 -177 -19 -535
l-6 -495 -27 -57 c-15 -32 -39 -73 -54 -93 -39 -52 -133 -110 -211 -130 -37
-10 -80 -27 -94 -36 -57 -40 -63 -130 -12 -180 17 -16 57 -35 102 -49 134 -39
209 -101 265 -220 l31 -65 6 -515 c4 -373 9 -526 19 -555 45 -145 148 -241
297 -280 66 -17 356 -21 397 -5 39 15 68 67 62 113 -10 82 -61 107 -223 107
-164 1 -204 19 -240 111 -15 39 -18 104 -23 549 -6 483 -7 508 -28 570 -12 36
-35 87 -52 112 -50 75 -164 158 -267 194 -29 10 -53 22 -53 25 0 4 14 9 32 13
59 12 176 76 232 127 66 60 111 145 126 239 5 36 10 248 10 480 0 435 5 489
46 561 11 20 38 43 64 57 38 19 60 22 157 22 158 0 209 25 219 107 6 46 -23
98 -62 113 -40 15 -350 11 -411 -5z"/>
</g>
</svg>
